<?xml version="1.0" encoding="UTF-8"?>
<svg width="256" height="256" viewBox="0 0 256 256" xmlns="http://www.w3.org/2000/svg" role="img" aria-label="Herlev/Hjorten logo placeholder">
  <defs>
    <linearGradient id="g" x1="0" y1="0" x2="1" y2="1">
      <stop offset="0%" stop-color="#2F6BFF" stop-opacity=".95"/>
      <stop offset="100%" stop-color="#0a65b0" stop-opacity=".95"/>
    </linearGradient>
    <filter id="shadow" x="-20%" y="-20%" width="140%" height="140%">
      <feDropShadow dx="0" dy="8" stdDeviation="8" flood-color="#0b1220" flood-opacity=".25"/>
    </filter>
  </defs>
  <rect width="256" height="256" rx="40" fill="url(#g)"/>
  <g filter="url(#shadow)">
    <circle cx="128" cy="128" r="88" fill="#ffffffE6"/>
    <path d="M128 70c30 0 46 18 46 36 0 28-26 48-46 70-20-22-46-42-46-70 0-18 16-36 46-36z" fill="#ffffff" stroke="#1f2f53" stroke-width="6"/>
    <path d="M118 128c6-12 16-16 16-16s-2 10 6 16c8 6 4 18-6 18s-22-6-16-18z" fill="#1f2f53"/>
  </g>
  <text x="128" y="232" text-anchor="middle" font-family="-apple-system,Segoe UI,Inter,sans-serif" font-size="18" fill="#fff" opacity=".9">Herlev/Hjorten</text>
</svg>
