<svg xmlns="http://www.w3.org/2000/svg" version="1.1" xmlns:xlink="http://www.w3.org/1999/xlink" width="1000" height="1000"><g clip-path="url(#SvgjsClipPath1168)"><rect width="1000" height="1000" fill="#ffffff"></rect><g transform="matrix(3.8297872340425534,0,0,3.8297872340425534,50,61.48936170212761)"><svg xmlns="http://www.w3.org/2000/svg" version="1.1" xmlns:xlink="http://www.w3.org/1999/xlink" width="235" height="229"><svg version="1.1" id="Layer_1" x="0px" y="0px" width="235" viewBox="0 0 235 229" enable-background="new 0 0 1024 432" xml:space="preserve" sodipodi:docname="Clairity_purple.svg" height="229" inkscape:version="1.4.2 (ebf0e940, 2025-05-08)" xmlns:inkscape="http://www.inkscape.org/namespaces/inkscape" xmlns:sodipodi="http://sodipodi.sourceforge.net/DTD/sodipodi-0.dtd" xmlns:xlink="http://www.w3.org/1999/xlink" xmlns="http://www.w3.org/2000/svg" xmlns:svg="http://www.w3.org/2000/svg"><defs id="defs11"><linearGradient id="linearGradient13" inkscape:collect="always"><stop style="stop-color:#fd2683;stop-opacity:1" offset="0" id="stop13"></stop><stop style="stop-color:#751de6;stop-opacity:1" offset="1" id="stop14"></stop></linearGradient><linearGradient inkscape:collect="always" xlink:href="#linearGradient13" id="linearGradient14" x1="189.4328" y1="102.9697" x2="334.84802" y2="257.81726" gradientUnits="userSpaceOnUse" gradientTransform="matrix(1.0984194,0,0,1.0548875,-164.12822,-79.656495)"></linearGradient><clipPath id="SvgjsClipPath1168"><rect width="1000" height="1000" x="0" y="0" rx="500" ry="500"></rect></clipPath></defs><sodipodi:namedview id="namedview11" pagecolor="#ffffff" bordercolor="#000000" borderopacity="0.25" inkscape:showpageshadow="2" inkscape:pageopacity="0.0" inkscape:pagecheckerboard="0" inkscape:deskcolor="#d1d1d1" inkscape:zoom="1.272219" inkscape:cx="533.32013" inkscape:cy="135.19685" inkscape:window-width="2560" inkscape:window-height="1381" inkscape:window-x="1710" inkscape:window-y="31" inkscape:window-maximized="1" inkscape:current-layer="Layer_1"></sodipodi:namedview>
<path fill="#000000" opacity="1" stroke="none" d="M 20.953606,178.19295 C -8.2023429,134.36192 -5.6222767,79.997664 28.621155,40.422624 50.333127,15.330152 78.695993,2.1697878 113.25975,1.0828848 165.12034,-0.54792917 208.77071,30.268064 225.5623,73.064644 250.75923,137.28379 213.7981,209.61399 140.95525,225.07056 95.145362,234.79102 48.367308,216.21926 20.953606,178.19295 M 169.77569,64.358984 c 23.02125,23.13966 28.5884,55.683986 13.4563,83.694826 -14.09508,26.09122 -37.00538,39.40791 -67.59945,40.53764 -6.07506,0.22433 -9.69808,3.18568 -9.76994,7.81404 -0.0691,4.45008 3.92891,7.64317 9.90553,7.67285 8.81145,0.0438 17.44961,-1.13054 25.97613,-3.3518 47.85188,-12.46603 80.46894,-65.47089 61.89366,-115.496126 -12.7896,-34.44375 -49.08289,-60.365182 -85.97759,-60.071333 -6.61278,0.05264 -10.8547,3.036378 -11.10033,7.807813 -0.24465,4.75273 4.15483,8.37444 10.8155,8.73576 20.19962,1.09573 37.61265,8.1733 52.40019,22.65633 M 149.564,133.36168 c -0.5069,0.73083 -0.99446,1.47486 -1.5236,2.19057 -9.35433,12.65272 -22.28114,18.37029 -38.03117,15.75786 -14.858519,-2.46455 -25.200225,-11.3366 -29.141771,-25.51615 -4.165668,-14.98593 -0.318421,-28.186616 12.342982,-38.404706 10.144529,-8.18692 25.612409,-10.13956 35.023209,-4.6338 -6.91181,9.27354 -7.22801,14.12484 -1.29099,19.807456 6.40782,6.13318 9.94919,5.57837 22.59882,-3.658166 1.0237,1.175696 1.96818,2.446396 3.10553,3.530516 2.97194,2.83294 6.44721,3.43412 9.92314,1.1288 3.38657,-2.24612 4.31132,-5.337076 2.69967,-9.229546 -7.50048,-18.11493 -33.65405,-33.30104 -53.67075,-31.0449 -27.222359,3.06831 -47.194213,23.72625 -48.169456,49.824186 -1.264632,33.84269 29.688307,60.46601 63.048206,53.44326 21.51448,-4.52911 35.72217,-17.6193 42.17324,-38.03506 1.40312,-4.44059 -0.70971,-8.07309 -5.25337,-9.48279 -4.52404,-1.40364 -7.33284,0.73947 -9.1416,4.53347 -1.44531,3.03155 -2.84802,6.08185 -4.69209,9.789 M 41.993126,120.11844 c 0.223836,-5.42225 -0.58861,-10.88812 0.937852,-16.25997 0.492564,-1.73345 0.0099,-3.45655 -1.010963,-5.041026 -2.294038,-3.56187 -5.578312,-5.17236 -9.784203,-4.07103 -5.043371,1.32068 -6.509849,5.438056 -6.861189,9.784756 -1.642697,20.32406 2.255956,39.52847 13.30121,57.1234 7.303204,11.63388 17.050929,21.04727 29.036692,28.26333 3.762042,2.26498 7.469372,1.90781 10.23941,-1.57177 2.895269,-3.6369 2.321531,-7.24771 -1.11785,-10.34775 -1.190237,-1.07282 -2.650563,-1.86647 -3.969765,-2.81053 C 53.900826,161.68829 43.58367,143.70108 41.993126,120.11844 Z" id="path1" style="fill:url(#linearGradient14);fill-opacity:1;stroke-width:1.07643"></path>










</svg></svg></g></g></svg>