<?xml version="1.0" encoding="UTF-8" standalone="no"?>
<svg
   version="1.1"
   id="Layer_1"
   x="0px"
   y="0px"
   width="800"
   viewBox="0 0 800 229"
   enable-background="new 0 0 1024 432"
   xml:space="preserve"
   sodipodi:docname="Clairity_blue_text.svg"
   height="229"
   inkscape:version="1.4.2 (ebf0e940, 2025-05-08)"
   xmlns:inkscape="http://www.inkscape.org/namespaces/inkscape"
   xmlns:sodipodi="http://sodipodi.sourceforge.net/DTD/sodipodi-0.dtd"
   xmlns:xlink="http://www.w3.org/1999/xlink"
   xmlns="http://www.w3.org/2000/svg"
   xmlns:svg="http://www.w3.org/2000/svg"><defs
   id="defs11"><linearGradient
     id="linearGradient15"
     inkscape:collect="always"><stop
       style="stop-color:#00bfce;stop-opacity:1;"
       offset="0.27828747"
       id="stop15" /><stop
       style="stop-color:#00b2d4;stop-opacity:1;"
       offset="0.48318043"
       id="stop17" /><stop
       style="stop-color:#017ef2;stop-opacity:1;"
       offset="1"
       id="stop16" /></linearGradient><linearGradient
     inkscape:collect="always"
     xlink:href="#linearGradient15"
     id="linearGradient16"
     x1="34.585239"
     y1="29.083044"
     x2="204.36732"
     y2="192.5769"
     gradientUnits="userSpaceOnUse" /></defs><sodipodi:namedview
   id="namedview11"
   pagecolor="#ffffff"
   bordercolor="#000000"
   borderopacity="0.25"
   inkscape:showpageshadow="2"
   inkscape:pageopacity="0.0"
   inkscape:pagecheckerboard="0"
   inkscape:deskcolor="#d1d1d1"
   inkscape:zoom="1.272219"
   inkscape:cx="533.32013"
   inkscape:cy="135.19685"
   inkscape:window-width="2560"
   inkscape:window-height="1381"
   inkscape:window-x="1710"
   inkscape:window-y="31"
   inkscape:window-maximized="1"
   inkscape:current-layer="Layer_1" />
<path
   fill="#000000"
   opacity="1"
   stroke="none"
   d="M 20.953606,178.19295 C -8.2023429,134.36192 -5.6222767,79.997664 28.621155,40.422624 50.333127,15.330152 78.695993,2.1697878 113.25975,1.0828848 165.12034,-0.54792917 208.77071,30.268064 225.5623,73.064644 250.75923,137.28379 213.7981,209.61399 140.95525,225.07056 95.145362,234.79102 48.367308,216.21926 20.953606,178.19295 M 169.77569,64.358984 c 23.02125,23.13966 28.5884,55.683986 13.4563,83.694826 -14.09508,26.09122 -37.00538,39.40791 -67.59945,40.53764 -6.07506,0.22433 -9.69808,3.18568 -9.76994,7.81404 -0.0691,4.45008 3.92891,7.64317 9.90553,7.67285 8.81145,0.0438 17.44961,-1.13054 25.97613,-3.3518 47.85188,-12.46603 80.46894,-65.47089 61.89366,-115.496126 -12.7896,-34.44375 -49.08289,-60.365182 -85.97759,-60.071333 -6.61278,0.05264 -10.8547,3.036378 -11.10033,7.807813 -0.24465,4.75273 4.15483,8.37444 10.8155,8.73576 20.19962,1.09573 37.61265,8.1733 52.40019,22.65633 M 149.564,133.36168 c -0.5069,0.73083 -0.99446,1.47486 -1.5236,2.19057 -9.35433,12.65272 -22.28114,18.37029 -38.03117,15.75786 -14.858519,-2.46455 -25.200225,-11.3366 -29.141771,-25.51615 -4.165668,-14.98593 -0.318421,-28.186616 12.342982,-38.404706 10.144529,-8.18692 25.612409,-10.13956 35.023209,-4.6338 -6.91181,9.27354 -7.22801,14.12484 -1.29099,19.807456 6.40782,6.13318 9.94919,5.57837 22.59882,-3.658166 1.0237,1.175696 1.96818,2.446396 3.10553,3.530516 2.97194,2.83294 6.44721,3.43412 9.92314,1.1288 3.38657,-2.24612 4.31132,-5.337076 2.69967,-9.229546 -7.50048,-18.11493 -33.65405,-33.30104 -53.67075,-31.0449 -27.222359,3.06831 -47.194213,23.72625 -48.169456,49.824186 -1.264632,33.84269 29.688307,60.46601 63.048206,53.44326 21.51448,-4.52911 35.72217,-17.6193 42.17324,-38.03506 1.40312,-4.44059 -0.70971,-8.07309 -5.25337,-9.48279 -4.52404,-1.40364 -7.33284,0.73947 -9.1416,4.53347 -1.44531,3.03155 -2.84802,6.08185 -4.69209,9.789 M 41.993126,120.11844 c 0.223836,-5.42225 -0.58861,-10.88812 0.937852,-16.25997 0.492564,-1.73345 0.0099,-3.45655 -1.010963,-5.041026 -2.294038,-3.56187 -5.578312,-5.17236 -9.784203,-4.07103 -5.043371,1.32068 -6.509849,5.438056 -6.861189,9.784756 -1.642697,20.32406 2.255956,39.52847 13.30121,57.1234 7.303204,11.63388 17.050929,21.04727 29.036692,28.26333 3.762042,2.26498 7.469372,1.90781 10.23941,-1.57177 2.895269,-3.6369 2.321531,-7.24771 -1.11785,-10.34775 -1.190237,-1.07282 -2.650563,-1.86647 -3.969765,-2.81053 C 53.900826,161.68829 43.58367,143.70108 41.993126,120.11844 Z"
   id="path1"
   style="fill:url(#linearGradient16);fill-opacity:1;stroke-width:1.076;stroke-dasharray:none" />
<path
   fill="#000000"
   opacity="1"
   stroke="none"
   d="m 321.76001,165.92086 c -27.68896,-1.10598 -47.44127,-19.99444 -51.75075,-43.49095 -4.39874,-23.982866 3.57232,-47.267206 27.96006,-60.649606 21.2939,-11.6847 48.43487,-8.5526 66.30034,7.08239 3.44248,3.01266 3.02732,4.84573 0.0277,7.55324 -3.18656,2.8762 -5.49227,7.52902 -9.16314,8.80557 -4.30903,1.49843 -6.87517,-4.08759 -10.53417,-6.14399 -22.22053,-12.48817 -51.892,3.17558 -52.47138,27.945646 -0.0937,4.00813 -0.0604,7.98254 0.7854,12.03077 5.87468,28.1173 37.47693,34.76161 57.46221,18.23244 3.63472,-3.00612 6.00819,-3.39573 8.85718,0.28239 0.32478,0.41934 0.75432,0.76448 1.13961,1.13994 9.3536,9.11446 9.30372,9.05164 -1.52993,17.01529 -10.84918,7.975 -23.28144,10.52033 -37.08313,10.19687 z"
   id="path2"
   style="fill:#0e2344;fill-opacity:1;stroke-width:1.07643" />
<path
   fill="#000000"
   opacity="1"
   stroke="none"
   d="m 423.88542,130.98398 c 6.32255,-11.05501 16.89987,-13.78948 28.3679,-14.76008 7.28595,-0.61669 14.48949,0.68185 21.63888,1.64888 1.9453,-8.45072 -3.34367,-14.95286 -12.39859,-15.71826 -7.69168,-0.65018 -15.0037,0.4359 -21.43788,4.76367 -2.97801,2.0031 -4.50208,1.47707 -6.40468,-1.48833 -6.87886,-10.721596 -6.88724,-11.824666 5.1774,-16.590296 14.83262,-5.85902 29.80328,-6.75298 44.21615,1.49534 7.27883,4.16562 11.21957,10.826856 12.05244,18.584676 1.82161,16.96917 0.85512,34.03977 0.98451,51.07003 0.0243,3.19709 -1.56798,4.37526 -4.73553,4.26052 -2.92236,-0.10584 -5.87739,-0.2359 -8.7742,0.0514 -4.96569,0.49239 -8.32363,-0.64066 -7.90515,-6.12006 -2.11773,-0.69025 -2.86257,0.87648 -4.0234,1.57814 -12.13873,7.3375 -24.82976,8.19307 -37.4774,1.82453 -11.02999,-5.55399 -14.44276,-17.54179 -9.28045,-30.60012 m 22.71302,1.78181 c -3.62772,2.37785 -4.6666,5.75085 -3.68885,9.66696 1.04873,4.20084 4.22687,6.49479 8.42578,7.36772 3.59615,0.74761 7.30848,0.66473 10.88163,-0.14956 6.66902,-1.5198 12.04895,-7.3701 12.53548,-13.15824 0.23411,-2.78498 -0.31114,-4.90127 -3.70877,-5.23059 -7.95724,-0.77127 -15.94257,-2.07412 -24.44527,1.50371 z"
   id="path3"
   style="fill:#0e2344;fill-opacity:1;stroke-width:1.07643" />
<path
   fill="#000000"
   opacity="1"
   stroke="none"
   d="m 775.88873,93.288654 c 1.0643,-6.85435 5.27669,-8.46782 11.40107,-7.70093 3.7669,0.47168 7.65842,-0.47985 11.28293,0.56821 1.21293,1.56723 0.2445,2.86958 -0.23431,4.11473 -9.49599,24.697346 -18.98904,49.395936 -28.58345,74.058156 -2.96098,7.61117 -6.85144,14.67188 -12.98788,20.54346 -7.90522,7.56395 -17.48246,8.91115 -27.86937,7.72988 -3.7179,-0.42285 -5.42686,-2.26376 -4.24592,-6.16156 1.15869,-3.82419 0.18007,-8.07714 2.33455,-11.7486 11.25035,1.73894 15.57075,-0.0616 19.67426,-7.90352 1.41447,-2.70296 1.52233,-5.08003 0.30471,-7.97646 -9.16856,-21.80945 -18.1624,-43.68673 -27.17844,-65.555146 -0.85659,-2.07763 -2.12215,-4.0866 -1.73217,-7.14908 6.38329,-0.93621 12.88304,-0.51186 19.34322,-0.27317 2.80263,0.10359 2.99873,2.80636 3.74364,4.67549 5.15997,12.948846 10.22427,25.932836 15.34341,38.896766 0.96004,2.43106 2.02836,4.82268 3.50986,8.32875 5.50283,-15.35557 10.64268,-29.69818 15.89389,-44.446976 z"
   id="path4"
   style="fill:#0e2344;fill-opacity:1;stroke-width:1.07643" />
<path
   fill="#000000"
   opacity="1"
   stroke="none"
   d="m 670.26006,106.52587 c 0.14434,-4.4955 -2.7982,-4.25146 -5.63255,-4.30117 -7.13636,-0.12513 -7.13711,-0.15239 -7.15125,-7.153136 -0.002,-1.23013 0.10556,-2.46787 -5.4e-4,-3.68903 -0.36552,-4.20546 1.33058,-6.40476 5.96662,-5.73734 5.76516,0.82994 7.07269,-1.7886 6.95798,-6.93177 -0.29291,-13.14022 -0.0639,-13.16059 13.89195,-13.0931 1.97218,0.01 4.0175,-0.37988 6.60164,0.93248 0,4.70865 0.12202,9.75125 -0.044,14.7851 -0.10589,3.20909 1.25616,4.54912 4.53144,4.29947 1.09078,-0.0831 2.19469,-0.003 3.29264,-0.002 12.29025,0.0117 14.17668,2.33314 11.90308,14.1054 -0.53292,2.759596 -2.29908,2.675846 -4.39087,2.672136 -3.83695,-0.006 -7.67472,0.12678 -11.51087,0.0886 -2.81812,-0.0281 -3.8511,1.21799 -3.82743,3.86927 0.0926,10.36774 -0.20228,20.74489 0.15532,31.10235 0.29921,8.66655 3.29526,10.85952 12.5607,10.44443 1.62094,-0.0726 3.24839,-0.0105 4.62189,-0.0105 1.38469,0.77332 1.2457,1.95159 1.53151,2.92693 3.6347,12.40352 2.20073,14.32429 -11.15992,14.58599 -3.45118,0.0676 -6.91299,0.32078 -10.36545,-0.52808 -11.68278,-2.87241 -17.71717,-9.90646 -17.86514,-21.51999 -0.15446,-12.12414 -0.0497,-24.25135 -0.0667,-36.84567 z"
   id="path5"
   style="fill:#0e2344;fill-opacity:1;stroke-width:1.07643" />
<path
   fill="#000000"
   opacity="1"
   stroke="none"
   d="m 382.80887,92.290174 c 0.0135,-11.24636 0.17444,-21.96787 -0.0299,-32.68294 -0.0833,-4.36379 1.58584,-5.73062 6.08348,-5.73804 15.2778,-0.0252 15.27727,-0.16804 15.27687,14.65142 -8e-4,29.69678 -0.13435,59.394606 0.12014,89.089386 0.046,5.36951 -1.58085,6.89433 -7.12747,6.76145 -14.30206,-0.34274 -14.31309,-0.0954 -14.31735,-14.0932 -0.005,-19.15354 -0.003,-38.3071 -0.005,-57.988076 z"
   id="path6"
   style="fill:#0e2344;fill-opacity:1;stroke-width:1.07643" />
<path
   fill="#000000"
   opacity="1"
   stroke="none"
   d="m 589.3337,86.595114 c 4.59339,-1.55356 8.75363,-2.47261 13.26617,-1.29467 2.66145,0.69475 3.74069,1.91709 3.177,4.47566 -0.0378,0.17188 -0.0977,0.34215 -0.11069,0.51571 -0.31537,4.1882 0.73391,9.17374 -1.29003,12.358256 -2.38972,3.76012 -8.082,0.7218 -12.27582,1.65215 -8.14415,1.80668 -14.2472,9.64809 -14.37238,19.55295 -0.14434,11.41589 -0.2683,22.8408 0.0638,34.24932 0.14387,4.94016 -1.66707,6.6934 -6.60681,6.15604 -2.16613,-0.23568 -4.38483,-0.0148 -6.57966,-0.0193 -8.20408,-0.017 -8.09104,-0.20065 -8.04379,-7.86447 0.12879,-20.87953 -0.031,-41.76062 -0.0504,-62.641116 -0.008,-8.07684 0.0244,-8.07691 8.41708,-8.0905 1.09741,-0.002 2.19483,-0.003 3.29224,-0.004 8.8139,-0.006 8.8139,-0.005 9.96046,8.34801 3.45569,-2.86627 6.54888,-5.87446 11.15287,-7.39361 z"
   id="path7"
   style="fill:#0e2344;fill-opacity:1;stroke-width:1.07643" />
<path
   fill="#000000"
   opacity="1"
   stroke="none"
   d="m 621.95428,147.14107 c 4.7e-4,-18.79721 0.15508,-37.06984 -0.10072,-55.337176 -0.0682,-4.87454 1.58695,-6.306 6.572,-6.25843 14.66434,0.14001 14.67326,-0.0417 14.68386,14.19047 0.0145,19.324646 -0.1119,38.650656 0.11263,57.972966 0.0581,5.00055 -1.61794,6.73076 -6.92385,6.66746 -14.34255,-0.17107 -14.34516,0.0306 -14.34335,-13.54645 2.1e-4,-1.0541 -1.3e-4,-2.10819 -5.4e-4,-3.68884 z"
   id="path8"
   style="fill:#0e2344;fill-opacity:1;stroke-width:1.07643" />
<path
   fill="#000000"
   opacity="1"
   stroke="none"
   d="m 520.39393,85.666644 c 15.61756,-0.0489 15.62258,-0.0489 15.61823,14.456976 -0.005,19.64354 -0.10885,39.28774 0.0462,58.93009 0.0297,3.75852 -0.85023,5.59313 -5.13476,5.21863 -3.25993,-0.28496 -6.58227,-0.22767 -9.85313,-0.003 -4.3932,0.30128 -5.63134,-1.60725 -5.60721,-5.60128 0.1357,-22.44902 0.0683,-44.89919 0.067,-67.348946 -1.3e-4,-2.91469 -0.0997,-5.88676 4.86363,-5.65215 z"
   id="path9"
   style="fill:#0e2344;fill-opacity:1;stroke-width:1.07643" />
<path
   fill="#000000"
   opacity="1"
   stroke="none"
   d="m 632.2336,76.856684 c -7.80183,-0.62186 -12.58584,-5.32043 -12.3947,-11.70875 0.18919,-6.32215 5.76737,-11.24859 12.66239,-11.18304 6.74942,0.0642 11.84281,4.66547 12.16622,10.99076 0.36779,7.19429 -3.75738,11.29949 -12.43391,11.90103 z"
   id="path10"
   style="fill:#0e2344;fill-opacity:1;stroke-width:1.07643" />
<path
   fill="#000000"
   opacity="1"
   stroke="none"
   d="m 523.87786,54.032654 c 8.64314,0.0857 13.42686,3.28533 14.25651,9.18916 0.94999,6.76011 -2.41044,12.09313 -8.46393,13.43236 -7.15878,1.58378 -13.48293,-1.58487 -15.36809,-7.70014 -2.08723,-6.77039 1.03118,-11.86235 9.57551,-14.92138 z"
   id="path11"
   style="fill:#0e2344;fill-opacity:1;stroke-width:1.07643" />
</svg>
